<?xml version="1.0" standalone="no"?>
<!DOCTYPE svg PUBLIC "-//W3C//DTD SVG 20010904//EN"
 "http://www.w3.org/TR/2001/REC-SVG-20010904/DTD/svg10.dtd">
<svg version="1.0" xmlns="http://www.w3.org/2000/svg"
 width="401.000000pt" height="401.000000pt" viewBox="0 0 401.000000 401.000000"
 preserveAspectRatio="xMidYMid meet">
<metadata>
Created by potrace 1.11, written by Peter Selinger 2001-2013
</metadata>
<g transform="translate(0.000000,401.000000) scale(0.100000,-0.100000)"
fill="#000000" stroke="none">
<path d="M1788 3675 c-1 -1 -41 -6 -88 -9 -47 -4 -94 -9 -105 -12 -11 -2 -42
-6 -69 -9 -26 -2 -56 -6 -65 -9 -9 -3 -32 -7 -51 -10 -44 -7 -77 -14 -98 -20
-9 -3 -30 -8 -47 -10 -54 -10 -279 -74 -350 -101 -38 -14 -77 -27 -85 -30 -66
-16 -458 -203 -479 -228 -16 -20 1 -372 25 -487 6 -34 17 -110 18 -137 1 -13
5 -23 10 -23 5 0 7 -3 4 -6 -3 -3 1 -33 9 -67 8 -34 16 -69 18 -77 1 -8 8 -35
15 -60 7 -25 13 -52 15 -60 18 -93 142 -413 223 -575 83 -169 250 -444 274
-453 4 -2 8 -8 8 -14 0 -5 43 -62 95 -126 133 -165 187 -225 311 -342 187
-177 239 -218 464 -368 177 -119 151 -114 266 -41 83 53 166 108 209 141 50
38 188 150 220 178 63 55 266 260 313 315 24 28 51 59 60 70 33 36 138 179
192 260 180 267 335 594 422 890 16 55 34 114 39 130 7 24 26 107 44 195 7 35
36 230 40 266 19 190 25 363 14 385 -10 20 -297 163 -428 214 -126 49 -297
105 -366 121 -5 1 -37 9 -70 17 -33 9 -76 19 -95 22 -19 3 -43 8 -53 11 -11 3
-29 7 -40 9 -12 1 -38 5 -57 9 -19 4 -51 9 -70 11 -19 2 -53 6 -75 10 -108 15
-157 17 -377 20 -130 2 -238 2 -240 0z m492 -180 c41 -3 86 -8 100 -10 14 -2
45 -6 70 -9 25 -3 55 -8 66 -10 12 -2 37 -7 55 -10 35 -6 86 -16 104 -20 6 -2
24 -6 40 -10 158 -39 281 -74 308 -88 10 -5 31 -12 45 -14 15 -3 31 -9 37 -13
5 -5 28 -14 50 -21 40 -13 224 -97 300 -137 l41 -21 -6 -67 c-3 -37 -5 -82 -5
-101 0 -19 -2 -34 -5 -34 -3 0 -6 -25 -7 -55 -6 -179 -119 -632 -209 -840 -10
-22 -18 -44 -20 -50 -3 -16 -111 -235 -146 -297 -79 -139 -134 -223 -217 -335
-139 -189 -249 -311 -361 -403 -30 -25 -71 -62 -92 -82 -76 -75 -164 -127
-259 -152 -68 -18 -229 -18 -300 -1 -95 23 -158 45 -173 60 -8 8 -19 15 -25
15 -5 0 -36 25 -68 56 -32 31 -92 84 -133 119 -90 76 -184 178 -283 308 -12
16 -26 34 -32 40 -99 115 -365 568 -365 622 0 8 -4 15 -10 15 -5 0 -10 8 -10
18 0 10 -4 22 -9 28 -16 17 -126 334 -138 397 -1 9 -12 52 -23 96 -11 43 -22
91 -25 107 -2 16 -7 40 -10 54 -3 14 -10 59 -16 100 -5 41 -12 86 -14 99 -4
25 -16 188 -19 250 -1 34 2 36 79 76 213 110 579 236 785 270 19 3 42 8 50 10
8 2 33 6 55 10 22 3 54 8 72 11 43 8 80 12 203 20 58 3 106 8 108 9 5 5 338
-3 412 -10z"/>
<path d="M1805 3347 c-86 -35 -153 -105 -199 -210 -24 -54 -55 -157 -61 -207
-30 -216 -23 -485 16 -637 49 -195 144 -282 389 -357 151 -46 231 -110 267
-213 18 -49 11 -237 -10 -283 -40 -91 -115 -119 -257 -97 -150 23 -233 111
-275 291 -9 39 -18 88 -19 110 -6 82 -3 77 -33 64 -16 -7 -44 -22 -63 -34
l-35 -21 1 -389 c1 -214 2 -392 3 -395 2 -9 130 55 130 65 1 5 12 24 27 43 28
37 57 42 104 18 67 -35 221 -65 341 -66 238 -3 349 183 352 589 4 528 -134
796 -468 907 -146 49 -223 105 -248 180 -23 65 -15 180 15 247 37 79 74 103
163 103 47 0 82 -7 108 -19 114 -56 189 -208 214 -436 3 -30 10 -58 15 -61 5
-3 26 -5 46 -3 20 2 45 3 55 3 16 1 17 26 17 374 l0 374 -53 2 c-45 2 -56 -2
-77 -24 -31 -33 -64 -32 -110 5 -71 56 -144 83 -239 86 -53 2 -98 -1 -116 -9z"/>
</g>
</svg>
